<svg xmlns="http://www.w3.org/2000/svg" id="Layer_1" viewBox="0 0 1000 1000"><path d="M435.2 117.4c63.4 0 162.8 5.5 220.7 30.3 19.2 8.3 71.6 38.6 85.4 47 5.5 2.7 47-5.6 60.7-5.6 5.6 0 14 3 16.7 5.6 5.5 2.8 11 19.3 5.5 27.6-5.5 5.5-13.8 33-5.5 47 16.6 30.2 44 102 52.4 135 5.6 19.4 5.6 41.5 19.4 52.5 5.5 5.5 16.6 8.3 22 11 22.2 2.8 55.3-13.8 71.8-2.8 30.3 35.8-2.8 121.3-24.8 135-22 14-47 0-49.7 30.4 11 8.3 24.8 33 22 47-2.7 11-19.2 22-30.2 19.2C849 660.8 769 760 747 782.2c8.2 19.3 24.7 69 11 88.3-5.6 5.5-33.2 8.3-49.8 8.3-24.8 2.8-49.7 2.8-66.2-5.5-16.6-8.3-27.6-38.6-47-44-22 0-41.3 5.4-60.6 5.4-58 0-132.4 0-171-2.8-24.8-5.6-38.6-8.4-52.4-3-19.3 8.4-33 30.4-52.4 38.7-24.8 11-82.8 2.8-102 0-5.6 5.5-8.4 0-11-5.5 0-33 5.4-85.5 2.7-96.6-11-44-49.7-80-66.2-124-11-27.7-13.7-63.5-22-94 0-13.7-2.8-30.2-2.8-44C49 481.6 16 476 7.6 448.4c16.6-11 47-22 52.4-41.4 8.3-13.8 11-44 19.3-66.2 22-49.7 58-107.6 102-138 83-63.4 204.3-85.4 254-85.4z" class="st0"/></svg>
