<svg xmlns="http://www.w3.org/2000/svg" viewBox="0 0 1000 1000"><path d="M817.5 255l-451-232.4C304-8.6 182.7 53.8 148 109.3c-14 20.8-14 41.6-14 52l7 527.3c0 10.4 14 27.8 27.8 34.7 24.3 14 406 253.2 416.3 260.2 7 3.5 14 7 21 7 6.8 0 10.3 0 17.2-3.6 10.4-7 17.3-17.4 17.3-28V397c0-10.3-7-20.7-17.3-27.7L214 140.3c3.4-10.4 24.2-27.8 55.4-45 34.7-17.4 62.4-10.5 69.4-10.5 0 0 395.5 211.6 406 218.5 10.3 7 13.8 7 13.8 17.3v523.8c0 27.8 27.8 38.2 45 38.2 21 0 41.7-17.3 41.7-38.2v-562c-7-13.5-14-24-27.8-27.4z" class="st0"/></svg>